<svg width="30" height="30" fill="none" stroke="#ffdb70" stroke-linecap="round" stroke-linejoin="round" stroke-width="2" viewBox="0 0 24 24" xmlns="http://www.w3.org/2000/svg">
  <path d="M7.5 3.75h-3a.75.75 0 0 0-.75.75v15c0 .414.336.75.75.75h3a.75.75 0 0 0 .75-.75v-15a.75.75 0 0 0-.75-.75Z"></path>
  <path d="M3.75 7.5h4.5"></path>
  <path d="M12 3.75H9a.75.75 0 0 0-.75.75v15c0 .414.336.75.75.75h3a.75.75 0 0 0 .75-.75v-15a.75.75 0 0 0-.75-.75Z"></path>
  <path d="M8.25 16.5h4.5"></path>
  <path d="m16.373 3.51-2.898.776a.75.75 0 0 0-.53.919l3.882 14.489a.75.75 0 0 0 .919.53l2.898-.776a.75.75 0 0 0 .53-.919L17.292 4.04a.75.75 0 0 0-.919-.53Z"></path>
  <path d="m16.05 16.8 4.35-1.171"></path>
  <path d="m13.725 8.1 4.35-1.162"></path>
</svg>