<svg width="18" height="18" viewBox="0 0 18 18" fill="none" xmlns="http://www.w3.org/2000/svg">
<g clip-path="url(#clip0_94_146)">
<path d="M11.8125 0.5625H6.1875C5.25552 0.5625 4.5 1.31802 4.5 2.25V15.75C4.5 16.682 5.25552 17.4375 6.1875 17.4375H11.8125C12.7445 17.4375 13.5 16.682 13.5 15.75V2.25C13.5 1.31802 12.7445 0.5625 11.8125 0.5625Z" stroke="#FFDB70" stroke-width="1.23047" stroke-linecap="round" stroke-linejoin="round"/>
<path d="M6.1875 0.5625H7.03125C7.10584 0.5625 7.17738 0.592132 7.23012 0.644876C7.28287 0.697621 7.3125 0.769158 7.3125 0.84375C7.3125 0.992934 7.37176 1.13601 7.47725 1.2415C7.58274 1.34699 7.72582 1.40625 7.875 1.40625H10.125C10.2742 1.40625 10.4173 1.34699 10.5227 1.2415C10.6282 1.13601 10.6875 0.992934 10.6875 0.84375C10.6875 0.769158 10.7171 0.697621 10.7699 0.644876C10.8226 0.592132 10.8942 0.5625 10.9688 0.5625H11.8125" stroke="#FFDB70" stroke-width="1.23047" stroke-linecap="round" stroke-linejoin="round"/>
</g>
<defs>
<clipPath id="clip0_94_146">
<rect width="18" height="18" fill="white"/>
</clipPath>
</defs>
</svg>
